<svg width="324" height="100" viewBox="0 0 324 100" fill="none" xmlns="http://www.w3.org/2000/svg">
<rect width="100" height="100" fill="#8E2424"/>
<path d="M21.5682 58L23.4773 46.3636H24.6136L22.7045 58H21.5682ZM16.2727 54.7727L16.4545 53.6364H25.1364L24.9545 54.7727H16.2727ZM17.4773 58L19.3864 46.3636H20.5227L18.6136 58H17.4773ZM16.9545 50.7273L17.1364 49.5909H25.8182L25.6364 50.7273H16.9545ZM31.0256 58.1591C30.2453 58.1591 29.5559 58.0208 28.9574 57.7443C28.3627 57.464 27.8987 57.0795 27.5653 56.5909C27.232 56.0985 27.0672 55.5379 27.071 54.9091C27.0672 54.4167 27.1638 53.9621 27.3608 53.5455C27.5578 53.125 27.8267 52.7746 28.1676 52.4943C28.5123 52.2102 28.8968 52.0303 29.321 51.9545V51.8864C28.7642 51.7424 28.321 51.4299 27.9915 50.9489C27.6619 50.464 27.4991 49.9129 27.5028 49.2955C27.4991 48.7045 27.6487 48.1761 27.9517 47.7102C28.2547 47.2443 28.6714 46.8769 29.2017 46.608C29.7358 46.339 30.3438 46.2045 31.0256 46.2045C31.6998 46.2045 32.3021 46.339 32.8324 46.608C33.3627 46.8769 33.7794 47.2443 34.0824 47.7102C34.3892 48.1761 34.5445 48.7045 34.5483 49.2955C34.5445 49.9129 34.3759 50.464 34.0426 50.9489C33.7131 51.4299 33.2756 51.7424 32.7301 51.8864V51.9545C33.1506 52.0303 33.5294 52.2102 33.8665 52.4943C34.2036 52.7746 34.4725 53.125 34.6733 53.5455C34.8741 53.9621 34.9763 54.4167 34.9801 54.9091C34.9763 55.5379 34.8059 56.0985 34.4688 56.5909C34.1354 57.0795 33.6714 57.464 33.0767 57.7443C32.4858 58.0208 31.8021 58.1591 31.0256 58.1591ZM31.0256 56.9091C31.5521 56.9091 32.0066 56.8239 32.3892 56.6534C32.7718 56.483 33.0672 56.2424 33.2756 55.9318C33.4839 55.6212 33.59 55.2576 33.5938 54.8409C33.59 54.4015 33.4763 54.0133 33.2528 53.6761C33.0294 53.339 32.7244 53.0739 32.3381 52.8807C31.9555 52.6875 31.518 52.5909 31.0256 52.5909C30.5294 52.5909 30.0862 52.6875 29.696 52.8807C29.3097 53.0739 29.0047 53.339 28.7812 53.6761C28.5616 54.0133 28.4536 54.4015 28.4574 54.8409C28.4536 55.2576 28.554 55.6212 28.7585 55.9318C28.9669 56.2424 29.2642 56.483 29.6506 56.6534C30.0369 56.8239 30.4953 56.9091 31.0256 56.9091ZM31.0256 51.3864C31.4422 51.3864 31.8116 51.303 32.1335 51.1364C32.4593 50.9697 32.715 50.7367 32.9006 50.4375C33.0862 50.1383 33.1809 49.7879 33.1847 49.3864C33.1809 48.9924 33.0881 48.6496 32.9062 48.358C32.7244 48.0625 32.4725 47.8352 32.1506 47.6761C31.8286 47.5133 31.4536 47.4318 31.0256 47.4318C30.59 47.4318 30.2093 47.5133 29.8835 47.6761C29.5578 47.8352 29.3059 48.0625 29.1278 48.358C28.9498 48.6496 28.8627 48.9924 28.8665 49.3864C28.8627 49.7879 28.9517 50.1383 29.1335 50.4375C29.3191 50.7367 29.5748 50.9697 29.9006 51.1364C30.2263 51.303 30.6013 51.3864 31.0256 51.3864ZM37.3622 58V46.3636H44.3849V47.6136H38.7713V51.5455H44.0213V52.7955H38.7713V56.75H44.4759V58H37.3622ZM46.7202 58V56.9773L50.5611 52.7727C51.0118 52.2803 51.383 51.8523 51.6747 51.4886C51.9664 51.1212 52.1823 50.7765 52.3224 50.4545C52.4664 50.1288 52.5384 49.7879 52.5384 49.4318C52.5384 49.0227 52.4399 48.6686 52.2429 48.3693C52.0497 48.0701 51.7846 47.839 51.4474 47.6761C51.1103 47.5133 50.7315 47.4318 50.3111 47.4318C49.8641 47.4318 49.474 47.5246 49.1406 47.7102C48.8111 47.892 48.5554 48.1477 48.3736 48.4773C48.1955 48.8068 48.1065 49.1932 48.1065 49.6364H46.7656C46.7656 48.9545 46.9228 48.3561 47.2372 47.8409C47.5516 47.3258 47.9796 46.9242 48.5213 46.6364C49.0668 46.3485 49.6785 46.2045 50.3565 46.2045C51.0384 46.2045 51.6425 46.3485 52.169 46.6364C52.6955 46.9242 53.1084 47.3125 53.4077 47.8011C53.7069 48.2898 53.8565 48.8333 53.8565 49.4318C53.8565 49.8598 53.7789 50.2784 53.6236 50.6875C53.4721 51.0928 53.2069 51.5455 52.8281 52.0455C52.4531 52.5417 51.9323 53.1477 51.2656 53.8636L48.652 56.6591V56.75H54.0611V58H46.7202ZM55.8849 55.6136V54.4545L60.9986 46.3636H61.8395V48.1591H61.2713L57.4077 54.2727V54.3636H64.294V55.6136H55.8849ZM61.3622 58V55.2614V54.7216V46.3636H62.7031V58H61.3622ZM66.4233 58V56.9773L70.2642 52.7727C70.715 52.2803 71.0862 51.8523 71.3778 51.4886C71.6695 51.1212 71.8854 50.7765 72.0256 50.4545C72.1695 50.1288 72.2415 49.7879 72.2415 49.4318C72.2415 49.0227 72.143 48.6686 71.946 48.3693C71.7528 48.0701 71.4877 47.839 71.1506 47.6761C70.8134 47.5133 70.4347 47.4318 70.0142 47.4318C69.5672 47.4318 69.1771 47.5246 68.8438 47.7102C68.5142 47.892 68.2585 48.1477 68.0767 48.4773C67.8987 48.8068 67.8097 49.1932 67.8097 49.6364H66.4688C66.4688 48.9545 66.6259 48.3561 66.9403 47.8409C67.2547 47.3258 67.6828 46.9242 68.2244 46.6364C68.7699 46.3485 69.3816 46.2045 70.0597 46.2045C70.7415 46.2045 71.3456 46.3485 71.8722 46.6364C72.3987 46.9242 72.8116 47.3125 73.1108 47.8011C73.41 48.2898 73.5597 48.8333 73.5597 49.4318C73.5597 49.8598 73.482 50.2784 73.3267 50.6875C73.1752 51.0928 72.91 51.5455 72.5312 52.0455C72.1562 52.5417 71.6354 53.1477 70.9688 53.8636L68.3551 56.6591V56.75H73.7642V58H66.4233ZM75.5881 55.6136V54.4545L80.7017 46.3636H81.5426V48.1591H80.9744L77.1108 54.2727V54.3636H83.9972V55.6136H75.5881ZM81.0653 58V55.2614V54.7216V46.3636H82.4062V58H81.0653Z" fill="white"/>
<rect x="112" width="100" height="100" fill="#667085"/>
<rect x="224" width="100" height="100" fill="#101828"/>
<path d="M133.568 58L135.477 46.3636H136.614L134.705 58H133.568ZM128.273 54.7727L128.455 53.6364H137.136L136.955 54.7727H128.273ZM129.477 58L131.386 46.3636H132.523L130.614 58H129.477ZM128.955 50.7273L129.136 49.5909H137.818L137.636 50.7273H128.955ZM143.162 58.1591C142.685 58.1515 142.207 58.0606 141.73 57.8864C141.253 57.7121 140.817 57.4186 140.423 57.0057C140.029 56.589 139.713 56.0265 139.474 55.3182C139.236 54.6061 139.116 53.7121 139.116 52.6364C139.116 51.6061 139.213 50.6932 139.406 49.8977C139.599 49.0985 139.88 48.4261 140.247 47.8807C140.615 47.3314 141.058 46.9148 141.577 46.6307C142.099 46.3466 142.688 46.2045 143.344 46.2045C143.995 46.2045 144.575 46.3352 145.082 46.5966C145.594 46.8542 146.01 47.214 146.332 47.6761C146.654 48.1383 146.863 48.6705 146.957 49.2727H145.571C145.442 48.75 145.192 48.3163 144.821 47.9716C144.45 47.6269 143.957 47.4545 143.344 47.4545C142.442 47.4545 141.732 47.8466 141.213 48.6307C140.698 49.4148 140.438 50.5152 140.435 51.9318H140.526C140.738 51.6098 140.99 51.3352 141.281 51.108C141.577 50.8769 141.902 50.6989 142.259 50.5739C142.615 50.4489 142.991 50.3864 143.389 50.3864C144.056 50.3864 144.666 50.553 145.219 50.8864C145.772 51.2159 146.215 51.6723 146.548 52.2557C146.882 52.8352 147.048 53.5 147.048 54.25C147.048 54.9697 146.887 55.6288 146.565 56.2273C146.243 56.822 145.791 57.2955 145.207 57.6477C144.628 57.9962 143.946 58.1667 143.162 58.1591ZM143.162 56.9091C143.639 56.9091 144.067 56.7898 144.446 56.5511C144.829 56.3125 145.13 55.9924 145.349 55.5909C145.573 55.1894 145.685 54.7424 145.685 54.25C145.685 53.7689 145.577 53.3314 145.361 52.9375C145.149 52.5398 144.855 52.2235 144.48 51.9886C144.109 51.7538 143.685 51.6364 143.207 51.6364C142.848 51.6364 142.512 51.7083 142.202 51.8523C141.891 51.9924 141.618 52.1856 141.384 52.4318C141.152 52.678 140.971 52.9602 140.838 53.2784C140.705 53.5928 140.639 53.9242 140.639 54.2727C140.639 54.7348 140.747 55.1667 140.963 55.5682C141.183 55.9697 141.482 56.2936 141.861 56.5398C142.243 56.786 142.677 56.9091 143.162 56.9091ZM153.146 58.1591C152.669 58.1515 152.192 58.0606 151.714 57.8864C151.237 57.7121 150.802 57.4186 150.408 57.0057C150.014 56.589 149.697 56.0265 149.459 55.3182C149.22 54.6061 149.101 53.7121 149.101 52.6364C149.101 51.6061 149.197 50.6932 149.391 49.8977C149.584 49.0985 149.864 48.4261 150.232 47.8807C150.599 47.3314 151.042 46.9148 151.561 46.6307C152.084 46.3466 152.673 46.2045 153.328 46.2045C153.98 46.2045 154.559 46.3352 155.067 46.5966C155.578 46.8542 155.995 47.214 156.317 47.6761C156.639 48.1383 156.847 48.6705 156.942 49.2727H155.555C155.427 48.75 155.177 48.3163 154.805 47.9716C154.434 47.6269 153.942 47.4545 153.328 47.4545C152.427 47.4545 151.716 47.8466 151.197 48.6307C150.682 49.4148 150.423 50.5152 150.419 51.9318H150.51C150.722 51.6098 150.974 51.3352 151.266 51.108C151.561 50.8769 151.887 50.6989 152.243 50.5739C152.599 50.4489 152.976 50.3864 153.374 50.3864C154.04 50.3864 154.65 50.553 155.203 50.8864C155.756 51.2159 156.199 51.6723 156.533 52.2557C156.866 52.8352 157.033 53.5 157.033 54.25C157.033 54.9697 156.872 55.6288 156.55 56.2273C156.228 56.822 155.775 57.2955 155.192 57.6477C154.612 57.9962 153.93 58.1667 153.146 58.1591ZM153.146 56.9091C153.624 56.9091 154.052 56.7898 154.43 56.5511C154.813 56.3125 155.114 55.9924 155.334 55.5909C155.557 55.1894 155.669 54.7424 155.669 54.25C155.669 53.7689 155.561 53.3314 155.345 52.9375C155.133 52.5398 154.839 52.2235 154.464 51.9886C154.093 51.7538 153.669 51.6364 153.192 51.6364C152.832 51.6364 152.497 51.7083 152.186 51.8523C151.875 51.9924 151.603 52.1856 151.368 52.4318C151.137 52.678 150.955 52.9602 150.822 53.2784C150.69 53.5928 150.624 53.9242 150.624 54.2727C150.624 54.7348 150.732 55.1667 150.947 55.5682C151.167 55.9697 151.466 56.2936 151.845 56.5398C152.228 56.786 152.661 56.9091 153.146 56.9091ZM159.631 58L164.835 47.7045V47.6136H158.835V46.3636H166.29V47.6818L161.108 58H159.631ZM171.953 58.1591C171.097 58.1591 170.368 57.9261 169.766 57.4602C169.163 56.9905 168.703 56.3106 168.385 55.4205C168.067 54.5265 167.908 53.447 167.908 52.1818C167.908 50.9242 168.067 49.8504 168.385 48.9602C168.707 48.0663 169.169 47.3845 169.771 46.9148C170.377 46.4413 171.105 46.2045 171.953 46.2045C172.802 46.2045 173.527 46.4413 174.129 46.9148C174.735 47.3845 175.197 48.0663 175.516 48.9602C175.838 49.8504 175.999 50.9242 175.999 52.1818C175.999 53.447 175.839 54.5265 175.521 55.4205C175.203 56.3106 174.743 56.9905 174.141 57.4602C173.538 57.9261 172.809 58.1591 171.953 58.1591ZM171.953 56.9091C172.802 56.9091 173.461 56.5 173.93 55.6818C174.4 54.8636 174.635 53.697 174.635 52.1818C174.635 51.1742 174.527 50.3163 174.311 49.608C174.099 48.8996 173.792 48.3598 173.391 47.9886C172.993 47.6174 172.514 47.4318 171.953 47.4318C171.112 47.4318 170.455 47.8466 169.982 48.6761C169.508 49.5019 169.271 50.6705 169.271 52.1818C169.271 53.1894 169.377 54.0455 169.589 54.75C169.802 55.4545 170.107 55.9905 170.504 56.358C170.906 56.7254 171.389 56.9091 171.953 56.9091ZM181.885 58.1591C181.105 58.1591 180.415 58.0208 179.817 57.7443C179.222 57.464 178.758 57.0795 178.425 56.5909C178.091 56.0985 177.927 55.5379 177.93 54.9091C177.927 54.4167 178.023 53.9621 178.22 53.5455C178.417 53.125 178.686 52.7746 179.027 52.4943C179.372 52.2102 179.756 52.0303 180.18 51.9545V51.8864C179.624 51.7424 179.18 51.4299 178.851 50.9489C178.521 50.464 178.358 49.9129 178.362 49.2955C178.358 48.7045 178.508 48.1761 178.811 47.7102C179.114 47.2443 179.531 46.8769 180.061 46.608C180.595 46.339 181.203 46.2045 181.885 46.2045C182.559 46.2045 183.161 46.339 183.692 46.608C184.222 46.8769 184.639 47.2443 184.942 47.7102C185.249 48.1761 185.404 48.7045 185.408 49.2955C185.404 49.9129 185.235 50.464 184.902 50.9489C184.572 51.4299 184.135 51.7424 183.589 51.8864V51.9545C184.01 52.0303 184.389 52.2102 184.726 52.4943C185.063 52.7746 185.332 53.125 185.533 53.5455C185.733 53.9621 185.836 54.4167 185.839 54.9091C185.836 55.5379 185.665 56.0985 185.328 56.5909C184.995 57.0795 184.531 57.464 183.936 57.7443C183.345 58.0208 182.661 58.1591 181.885 58.1591ZM181.885 56.9091C182.411 56.9091 182.866 56.8239 183.249 56.6534C183.631 56.483 183.927 56.2424 184.135 55.9318C184.343 55.6212 184.449 55.2576 184.453 54.8409C184.449 54.4015 184.336 54.0133 184.112 53.6761C183.889 53.339 183.584 53.0739 183.197 52.8807C182.815 52.6875 182.377 52.5909 181.885 52.5909C181.389 52.5909 180.946 52.6875 180.555 52.8807C180.169 53.0739 179.864 53.339 179.641 53.6761C179.421 54.0133 179.313 54.4015 179.317 54.8409C179.313 55.2576 179.413 55.6212 179.618 55.9318C179.826 56.2424 180.124 56.483 180.51 56.6534C180.896 56.8239 181.355 56.9091 181.885 56.9091ZM181.885 51.3864C182.302 51.3864 182.671 51.303 182.993 51.1364C183.319 50.9697 183.574 50.7367 183.76 50.4375C183.946 50.1383 184.04 49.7879 184.044 49.3864C184.04 48.9924 183.947 48.6496 183.766 48.358C183.584 48.0625 183.332 47.8352 183.01 47.6761C182.688 47.5133 182.313 47.4318 181.885 47.4318C181.449 47.4318 181.069 47.5133 180.743 47.6761C180.417 47.8352 180.165 48.0625 179.987 48.358C179.809 48.6496 179.722 48.9924 179.726 49.3864C179.722 49.7879 179.811 50.1383 179.993 50.4375C180.179 50.7367 180.434 50.9697 180.76 51.1364C181.086 51.303 181.461 51.3864 181.885 51.3864ZM191.653 58.1591C190.987 58.1591 190.386 58.0265 189.852 57.7614C189.318 57.4962 188.89 57.1326 188.568 56.6705C188.246 56.2083 188.07 55.6818 188.04 55.0909H189.403C189.456 55.6174 189.695 56.053 190.119 56.3977C190.547 56.7386 191.059 56.9091 191.653 56.9091C192.131 56.9091 192.555 56.7973 192.926 56.5739C193.301 56.3504 193.595 56.0436 193.807 55.6534C194.023 55.2595 194.131 54.8144 194.131 54.3182C194.131 53.8106 194.019 53.358 193.795 52.9602C193.576 52.5587 193.273 52.2424 192.886 52.0114C192.5 51.7803 192.059 51.6629 191.562 51.6591C191.206 51.6553 190.841 51.7102 190.466 51.8239C190.091 51.9337 189.782 52.0758 189.54 52.25L188.222 52.0909L188.926 46.3636H194.972V47.6136H190.108L189.699 51.0455H189.767C190.006 50.8561 190.305 50.6989 190.665 50.5739C191.025 50.4489 191.4 50.3864 191.79 50.3864C192.502 50.3864 193.136 50.5568 193.693 50.8977C194.254 51.2348 194.693 51.697 195.011 52.2841C195.333 52.8712 195.494 53.5417 195.494 54.2955C195.494 55.0379 195.328 55.7008 194.994 56.2841C194.665 56.8636 194.21 57.322 193.631 57.6591C193.051 57.9924 192.392 58.1591 191.653 58.1591Z" fill="white"/>
<path d="M247.568 58L249.477 46.3636H250.614L248.705 58H247.568ZM242.273 54.7727L242.455 53.6364H251.136L250.955 54.7727H242.273ZM243.477 58L245.386 46.3636H246.523L244.614 58H243.477ZM242.955 50.7273L243.136 49.5909H251.818L251.636 50.7273H242.955ZM257.389 46.3636V58H255.98V47.8409H255.912L253.071 49.7273V48.2955L255.98 46.3636H257.389ZM264.531 58.1591C263.675 58.1591 262.946 57.9261 262.344 57.4602C261.741 56.9905 261.281 56.3106 260.963 55.4205C260.645 54.5265 260.486 53.447 260.486 52.1818C260.486 50.9242 260.645 49.8504 260.963 48.9602C261.285 48.0663 261.747 47.3845 262.349 46.9148C262.955 46.4413 263.683 46.2045 264.531 46.2045C265.38 46.2045 266.105 46.4413 266.707 46.9148C267.313 47.3845 267.776 48.0663 268.094 48.9602C268.416 49.8504 268.577 50.9242 268.577 52.1818C268.577 53.447 268.418 54.5265 268.099 55.4205C267.781 56.3106 267.321 56.9905 266.719 57.4602C266.116 57.9261 265.387 58.1591 264.531 58.1591ZM264.531 56.9091C265.38 56.9091 266.039 56.5 266.509 55.6818C266.978 54.8636 267.213 53.697 267.213 52.1818C267.213 51.1742 267.105 50.3163 266.889 49.608C266.677 48.8996 266.37 48.3598 265.969 47.9886C265.571 47.6174 265.092 47.4318 264.531 47.4318C263.69 47.4318 263.033 47.8466 262.56 48.6761C262.086 49.5019 261.849 50.6705 261.849 52.1818C261.849 53.1894 261.955 54.0455 262.168 54.75C262.38 55.4545 262.685 55.9905 263.082 56.358C263.484 56.7254 263.967 56.9091 264.531 56.9091ZM274.827 46.3636V58H273.418V47.8409H273.349L270.509 49.7273V48.2955L273.418 46.3636H274.827ZM281.901 58.1591C281.12 58.1591 280.431 58.0208 279.832 57.7443C279.238 57.464 278.774 57.0795 278.44 56.5909C278.107 56.0985 277.942 55.5379 277.946 54.9091C277.942 54.4167 278.039 53.9621 278.236 53.5455C278.433 53.125 278.702 52.7746 279.043 52.4943C279.387 52.2102 279.772 52.0303 280.196 51.9545V51.8864C279.639 51.7424 279.196 51.4299 278.866 50.9489C278.537 50.464 278.374 49.9129 278.378 49.2955C278.374 48.7045 278.524 48.1761 278.827 47.7102C279.13 47.2443 279.546 46.8769 280.077 46.608C280.611 46.339 281.219 46.2045 281.901 46.2045C282.575 46.2045 283.177 46.339 283.707 46.608C284.238 46.8769 284.654 47.2443 284.957 47.7102C285.264 48.1761 285.42 48.7045 285.423 49.2955C285.42 49.9129 285.251 50.464 284.918 50.9489C284.588 51.4299 284.151 51.7424 283.605 51.8864V51.9545C284.026 52.0303 284.404 52.2102 284.741 52.4943C285.079 52.7746 285.348 53.125 285.548 53.5455C285.749 53.9621 285.851 54.4167 285.855 54.9091C285.851 55.5379 285.681 56.0985 285.344 56.5909C285.01 57.0795 284.546 57.464 283.952 57.7443C283.361 58.0208 282.677 58.1591 281.901 58.1591ZM281.901 56.9091C282.427 56.9091 282.882 56.8239 283.264 56.6534C283.647 56.483 283.942 56.2424 284.151 55.9318C284.359 55.6212 284.465 55.2576 284.469 54.8409C284.465 54.4015 284.351 54.0133 284.128 53.6761C283.904 53.339 283.599 53.0739 283.213 52.8807C282.83 52.6875 282.393 52.5909 281.901 52.5909C281.404 52.5909 280.961 52.6875 280.571 52.8807C280.185 53.0739 279.88 53.339 279.656 53.6761C279.437 54.0133 279.329 54.4015 279.332 54.8409C279.329 55.2576 279.429 55.6212 279.634 55.9318C279.842 56.2424 280.139 56.483 280.526 56.6534C280.912 56.8239 281.37 56.9091 281.901 56.9091ZM281.901 51.3864C282.317 51.3864 282.687 51.303 283.009 51.1364C283.334 50.9697 283.59 50.7367 283.776 50.4375C283.961 50.1383 284.056 49.7879 284.06 49.3864C284.056 48.9924 283.963 48.6496 283.781 48.358C283.599 48.0625 283.348 47.8352 283.026 47.6761C282.704 47.5133 282.329 47.4318 281.901 47.4318C281.465 47.4318 281.084 47.5133 280.759 47.6761C280.433 47.8352 280.181 48.0625 280.003 48.358C279.825 48.6496 279.738 48.9924 279.741 49.3864C279.738 49.7879 279.827 50.1383 280.009 50.4375C280.194 50.7367 280.45 50.9697 280.776 51.1364C281.101 51.303 281.476 51.3864 281.901 51.3864ZM288.033 58V56.9773L291.874 52.7727C292.324 52.2803 292.696 51.8523 292.987 51.4886C293.279 51.1212 293.495 50.7765 293.635 50.4545C293.779 50.1288 293.851 49.7879 293.851 49.4318C293.851 49.0227 293.752 48.6686 293.555 48.3693C293.362 48.0701 293.097 47.839 292.76 47.6761C292.423 47.5133 292.044 47.4318 291.624 47.4318C291.177 47.4318 290.786 47.5246 290.453 47.7102C290.124 47.892 289.868 48.1477 289.686 48.4773C289.508 48.8068 289.419 49.1932 289.419 49.6364H288.078C288.078 48.9545 288.235 48.3561 288.55 47.8409C288.864 47.3258 289.292 46.9242 289.834 46.6364C290.379 46.3485 290.991 46.2045 291.669 46.2045C292.351 46.2045 292.955 46.3485 293.482 46.6364C294.008 46.9242 294.421 47.3125 294.72 47.8011C295.019 48.2898 295.169 48.8333 295.169 49.4318C295.169 49.8598 295.091 50.2784 294.936 50.6875C294.785 51.0928 294.519 51.5455 294.141 52.0455C293.766 52.5417 293.245 53.1477 292.578 53.8636L289.964 56.6591V56.75H295.374V58H288.033ZM301.447 58.1591C300.667 58.1591 299.978 58.0208 299.379 57.7443C298.785 57.464 298.321 57.0795 297.987 56.5909C297.654 56.0985 297.489 55.5379 297.493 54.9091C297.489 54.4167 297.586 53.9621 297.783 53.5455C297.98 53.125 298.249 52.7746 298.589 52.4943C298.934 52.2102 299.319 52.0303 299.743 51.9545V51.8864C299.186 51.7424 298.743 51.4299 298.413 50.9489C298.084 50.464 297.921 49.9129 297.925 49.2955C297.921 48.7045 298.071 48.1761 298.374 47.7102C298.677 47.2443 299.093 46.8769 299.624 46.608C300.158 46.339 300.766 46.2045 301.447 46.2045C302.122 46.2045 302.724 46.339 303.254 46.608C303.785 46.8769 304.201 47.2443 304.504 47.7102C304.811 48.1761 304.966 48.7045 304.97 49.2955C304.966 49.9129 304.798 50.464 304.464 50.9489C304.135 51.4299 303.697 51.7424 303.152 51.8864V51.9545C303.572 52.0303 303.951 52.2102 304.288 52.4943C304.625 52.7746 304.894 53.125 305.095 53.5455C305.296 53.9621 305.398 54.4167 305.402 54.9091C305.398 55.5379 305.228 56.0985 304.891 56.5909C304.557 57.0795 304.093 57.464 303.499 57.7443C302.908 58.0208 302.224 58.1591 301.447 58.1591ZM301.447 56.9091C301.974 56.9091 302.429 56.8239 302.811 56.6534C303.194 56.483 303.489 56.2424 303.697 55.9318C303.906 55.6212 304.012 55.2576 304.016 54.8409C304.012 54.4015 303.898 54.0133 303.675 53.6761C303.451 53.339 303.146 53.0739 302.76 52.8807C302.377 52.6875 301.94 52.5909 301.447 52.5909C300.951 52.5909 300.508 52.6875 300.118 52.8807C299.732 53.0739 299.427 53.339 299.203 53.6761C298.983 54.0133 298.875 54.4015 298.879 54.8409C298.875 55.2576 298.976 55.6212 299.18 55.9318C299.389 56.2424 299.686 56.483 300.072 56.6534C300.459 56.8239 300.917 56.9091 301.447 56.9091ZM301.447 51.3864C301.864 51.3864 302.233 51.303 302.555 51.1364C302.881 50.9697 303.137 50.7367 303.322 50.4375C303.508 50.1383 303.603 49.7879 303.607 49.3864C303.603 48.9924 303.51 48.6496 303.328 48.358C303.146 48.0625 302.894 47.8352 302.572 47.6761C302.25 47.5133 301.875 47.4318 301.447 47.4318C301.012 47.4318 300.631 47.5133 300.305 47.6761C299.98 47.8352 299.728 48.0625 299.55 48.358C299.372 48.6496 299.285 48.9924 299.288 49.3864C299.285 49.7879 299.374 50.1383 299.555 50.4375C299.741 50.7367 299.997 50.9697 300.322 51.1364C300.648 51.303 301.023 51.3864 301.447 51.3864Z" fill="white"/>
</svg>
